<?xml version="1.0" encoding="UTF-8"?> <svg xmlns="http://www.w3.org/2000/svg" width="200" height="200" viewBox="0 0 200 200" fill="none"> <g clip-path="url(#clip0_1631_17988)"> <mask id="mask0_1631_17988" style="mask-type:luminance" maskUnits="userSpaceOnUse" x="0" y="0" width="200" height="200"> <path d="M200 0H0V200H200V0Z" fill="white"></path> </mask> <g mask="url(#mask0_1631_17988)"> <path d="M100 200C155.416 200 200 155.416 200 100C200 44.584 155.416 0 100 0C44.584 0 0 44.584 0 100C0 155.416 44.584 200 100 200Z" fill="url(#paint0_linear_1631_17988)"></path> <path d="M100 200C155.416 200 200 155.416 200 100C200 44.584 155.416 0 100 0C44.584 0 0 44.584 0 100C0 155.416 44.584 200 100 200Z" fill="url(#paint1_linear_1631_17988)"></path> <path d="M100 200C155.416 200 200 155.416 200 100C200 44.584 155.416 0 100 0C44.584 0 0 44.584 0 100C0 155.416 44.584 200 100 200Z" fill="url(#paint2_linear_1631_17988)"></path> <path d="M105.18 44.204L104.98 44.168L104.948 44.368L101.856 62.34C101.524 62.332 101.184 62.328 100.844 62.328C96.9079 62.328 93.2999 62.86 90.0279 63.92C86.7599 64.98 83.8719 66.48 81.3639 68.412C78.9519 70.252 77.0679 72.48 75.7159 75.096C74.4599 77.624 73.8319 80.436 73.8319 83.532C73.8319 87.016 74.6039 90.024 76.1559 92.556V92.56C77.7959 95.08 79.9199 97.16 82.5239 98.804C85.2119 100.444 88.1399 101.84 91.3039 102.996C94.4639 104.148 97.6239 105.156 100.784 106.024C103.644 106.788 106.12 107.604 108.216 108.46H108.22C110.304 109.22 111.896 110.212 113.016 111.428V111.432C114.112 112.532 114.676 114.152 114.676 116.324C114.676 118.016 114.256 119.564 113.416 120.968V120.976C112.68 122.364 111.384 123.44 109.504 124.192C107.624 124.944 105.028 125.328 101.692 125.328C96.2719 125.328 92.1159 124.136 89.2039 121.776C86.3759 119.412 84.6799 116.292 84.1119 112.408L84.0879 112.236H71.1279L71.0999 112.404C70.8079 114.268 71.0999 116.604 71.9679 119.4C72.8359 122.116 74.3799 124.868 76.5879 127.664C78.9039 130.476 82.1319 132.844 86.2639 134.772C87.1079 135.148 87.9959 135.484 88.9279 135.78L85.7199 153.688L85.6839 153.884L85.8799 153.92L96.4879 155.792L96.6839 155.828L96.7199 155.632L99.8399 137.492C100.536 137.516 101.244 137.528 101.968 137.528C107.624 137.528 112.432 136.712 116.38 135.068C120.424 133.328 123.516 130.86 125.644 127.66C127.868 124.46 128.976 120.728 128.976 116.472C128.976 112.996 128.304 110.08 126.94 107.74C125.588 105.412 123.8 103.472 121.576 101.924C119.364 100.38 116.816 99.076 113.936 98.016C111.068 96.864 108.1 95.76 105.04 94.704H105.036C101.788 93.744 98.8799 92.788 96.3039 91.832C93.7399 90.88 91.7039 89.784 90.1999 88.56C88.7159 87.256 87.9759 85.588 87.9759 83.532C87.9759 80.812 89.0479 78.668 91.1919 77.076C93.3439 75.48 96.4959 74.668 100.68 74.668C104.864 74.668 107.812 75.62 109.864 77.492C111.92 79.272 113.292 82.1 113.956 86.004L113.984 86.172H126.4V85.968C126.3 81.336 125.24 77.276 123.216 73.792C121.284 70.208 118.436 67.4 114.68 65.372C114.044 65.02 113.376 64.696 112.684 64.404L115.928 46.304L115.964 46.108L115.768 46.072L105.16 44.204H105.18Z" stroke="#969696"></path> <path d="M199.799 100C199.799 155.308 155.307 199.8 99.9992 199.8C44.6912 199.8 0.199219 155.308 0.199219 100C0.199219 44.692 44.6912 0.199951 99.9992 0.199951C155.307 0.199951 199.799 44.692 199.799 100Z" stroke="#969696"></path> <path d="M99.9992 22.2C103.143 22.2 106.247 22.388 109.295 22.748L106.755 37.76C104.535 37.524 102.283 37.4 100.003 37.4C65.4312 37.4 37.4032 65.428 37.4032 100C37.4032 129.536 57.8592 154.296 85.3752 160.88L82.8032 175.892C48.1112 168.064 22.1992 137.056 22.1992 100C22.1992 57.032 57.0312 22.2 99.9992 22.2ZM93.8232 177.56L96.3552 162.496C97.5592 162.564 98.7752 162.6 99.9992 162.6C134.571 162.6 162.599 134.572 162.599 100C162.599 71.556 143.627 47.544 117.647 39.924L120.239 24.86C153.391 33.768 177.795 64.036 177.795 100C177.795 142.968 142.963 177.8 99.9952 177.8C97.9152 177.8 93.8232 177.56 93.8232 177.56Z" stroke="#969696"></path> </g> <path d="M120.245 26.4601C121.128 26.4601 121.845 25.7438 121.845 24.8601C121.845 23.9765 121.128 23.2601 120.245 23.2601C119.361 23.2601 118.645 23.9765 118.645 24.8601C118.645 25.7438 119.361 26.4601 120.245 26.4601Z" fill="#969696"></path> <path d="M82.8031 177.492C83.6868 177.492 84.4031 176.776 84.4031 175.892C84.4031 175.009 83.6868 174.292 82.8031 174.292C81.9195 174.292 81.2031 175.009 81.2031 175.892C81.2031 176.776 81.9195 177.492 82.8031 177.492Z" fill="#969696"></path> </g> <defs> <linearGradient id="paint0_linear_1631_17988" x1="0" y1="0" x2="200" y2="200" gradientUnits="userSpaceOnUse"> <stop stop-color="#583BC4"></stop> <stop offset="0.34" stop-color="#583BC4" stop-opacity="0"></stop> </linearGradient> <linearGradient id="paint1_linear_1631_17988" x1="203.676" y1="69.808" x2="29.072" y2="120.652" gradientUnits="userSpaceOnUse"> <stop stop-color="#AF6939"></stop> <stop offset="0.34" stop-color="#AF6939" stop-opacity="0"></stop> </linearGradient> <linearGradient id="paint2_linear_1631_17988" x1="77.54" y1="204.044" x2="120.54" y2="4.84401" gradientUnits="userSpaceOnUse"> <stop stop-color="#32906D"></stop> <stop offset="0.25" stop-color="#32906D" stop-opacity="0"></stop> </linearGradient> <clipPath id="clip0_1631_17988"> <rect width="200" height="200" fill="white"></rect> </clipPath> </defs> </svg> 