<?xml version="1.0" encoding="UTF-8"?> <svg xmlns="http://www.w3.org/2000/svg" width="315" height="260" viewBox="0 0 315 260" fill="none"> <g clip-path="url(#clip0_1632_19838)"> <path opacity="0.8" d="M94.6406 2.36597V206.429L186.913 152.935L94.6406 2.36597Z" fill="url(#paint0_linear_1632_19838)"></path> <path d="M94.6391 2.36597L2.36719 152.935L94.6391 206.429V2.36597Z" fill="url(#paint1_linear_1632_19838)" fill-opacity="0.8"></path> <path d="M94.6406 2.36597V111.844L186.913 152.935L94.6406 2.36597Z" stroke="#969696" stroke-linecap="round" stroke-linejoin="bevel"></path> <path d="M94.6391 2.36597L2.36719 152.935L94.6391 111.844V2.36597Z" stroke="#969696" stroke-linecap="round" stroke-linejoin="bevel"></path> <path d="M186.913 170.348L94.6406 223.919" stroke="#969696" stroke-linecap="round" stroke-linejoin="bevel"></path> <path d="M94.6391 223.907L2.36719 170.348" stroke="#969696" stroke-linecap="round" stroke-linejoin="bevel"></path> <path d="M94.6406 206.429L186.913 152.935L94.6406 111.844V206.429Z" stroke="#969696" stroke-linecap="round" stroke-linejoin="bevel"></path> <path d="M2.36719 152.935L94.6391 206.429V111.844L2.36719 152.935Z" stroke="#969696" stroke-linecap="round" stroke-linejoin="bevel"></path> <path d="M186.911 172.714C188.218 172.714 189.277 171.655 189.277 170.348C189.277 169.042 188.218 167.982 186.911 167.982C185.604 167.982 184.545 169.042 184.545 170.348C184.545 171.655 185.604 172.714 186.911 172.714Z" fill="#969696"></path> <path d="M186.911 155.301C188.218 155.301 189.277 154.242 189.277 152.935C189.277 151.628 188.218 150.569 186.911 150.569C185.604 150.569 184.545 151.628 184.545 152.935C184.545 154.242 185.604 155.301 186.911 155.301Z" fill="#969696"></path> <path d="M94.6394 114.21C95.9461 114.21 97.0053 113.151 97.0053 111.844C97.0053 110.538 95.9461 109.478 94.6394 109.478C93.3327 109.478 92.2734 110.538 92.2734 111.844C92.2734 113.151 93.3327 114.21 94.6394 114.21Z" fill="#969696"></path> <path d="M94.6394 4.7319C95.9461 4.7319 97.0053 3.67263 97.0053 2.36595C97.0053 1.05927 95.9461 0 94.6394 0C93.3327 0 92.2734 1.05927 92.2734 2.36595C92.2734 3.67263 93.3327 4.7319 94.6394 4.7319Z" fill="#969696"></path> <path d="M94.6394 208.795C95.9461 208.795 97.0053 207.736 97.0053 206.429C97.0053 205.122 95.9461 204.063 94.6394 204.063C93.3327 204.063 92.2734 205.122 92.2734 206.429C92.2734 207.736 93.3327 208.795 94.6394 208.795Z" fill="#969696"></path> <path d="M94.6394 226.285C95.9461 226.285 97.0053 225.226 97.0053 223.919C97.0053 222.613 95.9461 221.553 94.6394 221.553C93.3327 221.553 92.2734 222.613 92.2734 223.919C92.2734 225.226 93.3327 226.285 94.6394 226.285Z" fill="#969696"></path> <path d="M2.3679 155.301C3.67458 155.301 4.73385 154.242 4.73385 152.935C4.73385 151.628 3.67458 150.569 2.3679 150.569C1.06122 150.569 0.00195312 151.628 0.00195312 152.935C0.00195312 154.242 1.06122 155.301 2.3679 155.301Z" fill="#969696"></path> <path d="M2.3679 172.714C3.67458 172.714 4.73385 171.655 4.73385 170.348C4.73385 169.042 3.67458 167.982 2.3679 167.982C1.06122 167.982 0.00195312 169.042 0.00195312 170.348C0.00195312 171.655 1.06122 172.714 2.3679 172.714Z" fill="#969696"></path> <path d="M186.913 186.91L94.6406 240.481" stroke="#969696" stroke-linecap="round" stroke-linejoin="bevel"></path> <path d="M94.6391 240.469L2.36719 186.91" stroke="#969696" stroke-linecap="round" stroke-linejoin="bevel"></path> <path d="M186.911 189.276C188.218 189.276 189.277 188.217 189.277 186.91C189.277 185.603 188.218 184.544 186.911 184.544C185.604 184.544 184.545 185.603 184.545 186.91C184.545 188.217 185.604 189.276 186.911 189.276Z" fill="#969696"></path> <path d="M94.6394 242.847C95.9461 242.847 97.0053 241.788 97.0053 240.481C97.0053 239.174 95.9461 238.115 94.6394 238.115C93.3327 238.115 92.2734 239.174 92.2734 240.481C92.2734 241.788 93.3327 242.847 94.6394 242.847Z" fill="#969696"></path> <path d="M2.3679 189.276C3.67458 189.276 4.73385 188.217 4.73385 186.91C4.73385 185.603 3.67458 184.544 2.3679 184.544C1.06122 184.544 0.00195312 185.603 0.00195312 186.91C0.00195312 188.217 1.06122 189.276 2.3679 189.276Z" fill="#969696"></path> <path d="M186.913 204.063L94.6406 257.634" stroke="#969696" stroke-linecap="round" stroke-linejoin="bevel"></path> <path d="M186.911 206.429C188.218 206.429 189.277 205.37 189.277 204.063C189.277 202.756 188.218 201.697 186.911 201.697C185.604 201.697 184.545 202.756 184.545 204.063C184.545 205.37 185.604 206.429 186.911 206.429Z" fill="#969696"></path> <path d="M94.6394 260C95.9461 260 97.0053 258.941 97.0053 257.634C97.0053 256.327 95.9461 255.268 94.6394 255.268C93.3327 255.268 92.2734 256.327 92.2734 257.634C92.2734 258.941 93.3327 260 94.6394 260Z" fill="#969696"></path> <path d="M186.912 152.935H314" stroke="#969696" stroke-miterlimit="10"></path> <path d="M186.912 170.189H314" stroke="#969696" stroke-miterlimit="10"></path> <path d="M186.912 186.845H314.5" stroke="#969696" stroke-miterlimit="10"></path> <path d="M186.912 204.099H314.5" stroke="#969696" stroke-miterlimit="10"></path> </g> <defs> <linearGradient id="paint0_linear_1632_19838" x1="136" y1="182.5" x2="90.5" y2="2" gradientUnits="userSpaceOnUse"> <stop stop-color="#AF6939"></stop> <stop offset="0.544832" stop-color="#AF6939" stop-opacity="0.292683"></stop> <stop offset="1" stop-color="#AF6939" stop-opacity="0"></stop> </linearGradient> <linearGradient id="paint1_linear_1632_19838" x1="49" y1="78" x2="109.5" y2="206" gradientUnits="userSpaceOnUse"> <stop stop-color="#583BC4"></stop> <stop offset="0.559528" stop-color="#583BC4" stop-opacity="0.247934"></stop> <stop offset="1" stop-color="#583BC4" stop-opacity="0"></stop> </linearGradient> <clipPath id="clip0_1632_19838"> <rect width="315" height="260" fill="white"></rect> </clipPath> </defs> </svg> 