<?xml version="1.0" encoding="UTF-8"?> <svg xmlns="http://www.w3.org/2000/svg" width="300" height="300" viewBox="0 0 300 300" fill="none"> <path d="M209.4 90.6H149.4V0H300V150.6H209.4V90.6Z" fill="url(#paint0_linear_1631_18004)"></path> <path d="M89.8785 90.6H149.4V0H0.00038147V150.6H89.8785V90.6Z" fill="url(#paint1_linear_1631_18004)"></path> <path d="M209.4 209.761H149.4V300H300V150H209.4V209.761Z" fill="url(#paint2_linear_1631_18004)"></path> <path fill-rule="evenodd" clip-rule="evenodd" d="M0 300H300V0H0V300ZM0.6 1.13735L60 60.5373V150.057H0.6V1.13735ZM0.911177 0.6L60.3684 60.0572H149.4V0.6H0.911177ZM150 0.6V60.0572H239.4L298.857 0.6H150ZM299.4 0.905539L240 60.3056V150.057H299.4V0.905539ZM299.4 150.657H240V239.287L299.4 298.687V150.657ZM239.4 238.687V150.657H210V209.287L239.4 238.687ZM209.922 210.057L239.322 239.457H150V210.057H209.922ZM239.922 240.057L299.265 299.4H150V240.057H239.922ZM149.4 299.4V240.057H60.1355L0.792671 299.4H149.4ZM0.6 298.744L60 239.344V150.657H0.6V298.744ZM149.4 90.0572H90.3684L60.9684 60.6572H149.4V90.0572ZM90 150.057V90.5373L60.6 61.1373V150.057H90ZM149.4 239.457H60.7355L90.1355 210.057H149.4V239.457ZM60.6 238.744L90 209.344V150.657H60.6V238.744ZM238.8 60.6572L209.4 90.0572H150V60.6572H238.8ZM210 150.057V90.3056L239.4 60.9056V150.057H210ZM90.6 209.457H209.4V90.6572H90.6V209.457Z" fill="#969696"></path> <path fill-rule="evenodd" clip-rule="evenodd" d="M0 0H300V300H0V0ZM1.93158 1.1976L60.6713 59.9373H149.102V1.1976H1.93158ZM150.299 1.1976V59.9373H239.098L297.837 1.1976H150.299ZM240.12 60.6086V149.758H298.802V1.92595L240.12 60.6086ZM1.1976 2.1573L59.8802 60.8399V149.758H1.1976V2.1573ZM61.8689 61.1349L90.6114 89.8774H149.102V61.1349H61.8689ZM150.299 61.1349V89.8774H209.157L237.9 61.1349H150.299ZM209.581 90.3007L209.405 90.4762H209.581V90.3007ZM210.18 90.5487V149.758H238.922V61.8062L210.18 90.5487ZM61.0778 62.0375L89.8203 90.78V149.758H61.0778V62.0375ZM90.4191 90.4762H90.3634L90.4191 90.532V90.4762ZM91.0179 91.075V209.039H208.982V91.075H91.0179ZM209.581 209.293V209.638H209.926L209.581 209.293ZM1.1976 150.955V297.724L59.8802 239.042V150.955H1.1976ZM61.0778 150.955V237.844L89.8203 209.102V150.955H61.0778ZM210.18 150.955V209.045L238.922 237.787V150.955H210.18ZM240.12 150.955V238.985L298.802 297.667V150.955H240.12ZM90.1309 209.638H90.4191V209.35L90.1309 209.638ZM90.379 210.237L61.6364 238.979H149.102V210.237H90.379ZM150.299 210.237V238.979H238.421L209.678 210.237H150.299ZM60.4388 240.177L1.8133 298.802H149.102V240.177H60.4388ZM150.299 240.177V298.802H298.244L239.618 240.177H150.299Z" fill="#969696"></path> <rect x="87.6016" y="88.2012" width="4.8" height="4.8" rx="2.4" fill="#969696"></rect> <rect x="57.6016" y="57.6016" width="4.8" height="4.8" rx="2.4" fill="#969696"></rect> <rect x="57.6016" y="237.602" width="4.8" height="4.8" rx="2.4" fill="#969696"></rect> <rect x="237" y="57.6016" width="4.8" height="4.8" rx="2.4" fill="#969696"></rect> <rect x="237.602" y="237" width="4.8" height="4.8" rx="2.4" fill="#969696"></rect> <rect x="87.6016" y="207.602" width="4.8" height="4.8" rx="2.4" fill="#969696"></rect> <rect x="87.6016" y="148.201" width="4.8" height="4.8" rx="2.4" fill="#969696"></rect> <rect x="147" y="88.2012" width="4.8" height="4.8" rx="2.4" fill="#969696"></rect> <rect x="147" y="207.602" width="4.8" height="4.8" rx="2.4" fill="#969696"></rect> <rect x="206.4" y="88.2012" width="4.8" height="4.8" rx="2.4" fill="#969696"></rect> <rect x="206.4" y="207.602" width="4.8" height="4.8" rx="2.4" fill="#969696"></rect> <rect x="207" y="148.201" width="4.8" height="4.8" rx="2.4" fill="#969696"></rect> <defs> <linearGradient id="paint0_linear_1631_18004" x1="168.6" y1="139.2" x2="300" y2="8.98157e-06" gradientUnits="userSpaceOnUse"> <stop offset="0.236592" stop-color="#AF6939" stop-opacity="0"></stop> <stop offset="1" stop-color="#AF6939"></stop> </linearGradient> <linearGradient id="paint1_linear_1631_18004" x1="135.6" y1="135.6" x2="-1.0739" y2="1.09158" gradientUnits="userSpaceOnUse"> <stop offset="0.236592" stop-color="#583BC4" stop-opacity="0"></stop> <stop offset="1" stop-color="#583BC4"></stop> </linearGradient> <linearGradient id="paint2_linear_1631_18004" x1="168.6" y1="161.355" x2="299.446" y2="300.521" gradientUnits="userSpaceOnUse"> <stop offset="0.236592" stop-color="#32906D" stop-opacity="0"></stop> <stop offset="1" stop-color="#32906D"></stop> </linearGradient> </defs> </svg> 