<?xml version="1.0" encoding="UTF-8"?> <svg xmlns="http://www.w3.org/2000/svg" width="894" height="953" viewBox="0 0 894 953" fill="none"> <g opacity="0.4" clip-path="url(#clip0_1884_43020)"> <path d="M378.65 324.273L515.335 628.725" stroke="#969696" stroke-miterlimit="10"></path> <path d="M562.764 598.118L331.234 354.881" stroke="#969696" stroke-miterlimit="10"></path> <path d="M299.99 403.438L594.009 549.564" stroke="#969696" stroke-miterlimit="10"></path> <path d="M604.382 489.826L289.619 463.174" stroke="#969696" stroke-miterlimit="10"></path> <path d="M301.881 525.549L592.103 427.453" stroke="#969696" stroke-miterlimit="10"></path> <path d="M558.698 371.416L335.285 581.584" stroke="#969696" stroke-miterlimit="10"></path> <path d="M385.258 623.103L508.726 329.896" stroke="#969696" stroke-miterlimit="10"></path> <path d="M449.223 309.074L444.775 643.927" stroke="#969696" stroke-miterlimit="10"></path> <path d="M505.328 640.781L388.674 312.219" stroke="#969696" stroke-miterlimit="10"></path> <path d="M335.826 339.156L558.175 613.843" stroke="#969696" stroke-miterlimit="10"></path> <path d="M595.582 566.702L298.402 386.299" stroke="#969696" stroke-miterlimit="10"></path> <path d="M282.041 447.053L611.958 505.948" stroke="#969696" stroke-miterlimit="10"></path> <path d="M604.667 440.207L289.316 512.794" stroke="#969696" stroke-miterlimit="10"></path> <path d="M319.496 574.103L574.487 378.896" stroke="#969696" stroke-miterlimit="10"></path> <path d="M525.501 330.977L368.484 622.023" stroke="#969696" stroke-miterlimit="10"></path> <path d="M429.432 649.486L464.568 303.516" stroke="#969696" stroke-miterlimit="10"></path> <path d="M400.348 300.734L493.652 652.264" stroke="#969696" stroke-miterlimit="10"></path> <path d="M551.899 629.648L342.1 323.354" stroke="#969696" stroke-miterlimit="10"></path> <path d="M298.307 368.398L595.692 584.602" stroke="#969696" stroke-miterlimit="10"></path> <path d="M618.504 523.388L275.498 429.613" stroke="#969696" stroke-miterlimit="10"></path> <path d="M277.213 498.372L616.787 454.629" stroke="#969696" stroke-miterlimit="10"></path> <path d="M590.483 388.205L303.502 564.796" stroke="#969696" stroke-miterlimit="10"></path> <path d="M350.869 619.243L543.117 333.756" stroke="#969696" stroke-miterlimit="10"></path> <path d="M481.277 299.273L412.721 653.726" stroke="#969696" stroke-miterlimit="10"></path> <path d="M480.278 662.97L413.723 290.029" stroke="#969696" stroke-miterlimit="10"></path> <path d="M350.154 307.629L543.847 645.372" stroke="#969696" stroke-miterlimit="10"></path> <path d="M594.168 603.137L299.832 349.861" stroke="#969696" stroke-miterlimit="10"></path> <path d="M270.176 410.934L623.824 542.066" stroke="#969696" stroke-miterlimit="10"></path> <path d="M628.256 470.766L265.744 482.233" stroke="#969696" stroke-miterlimit="10"></path> <path d="M287.459 553.565L606.527 399.434" stroke="#969696" stroke-miterlimit="10"></path> <path d="M561.462 338.379L332.537 614.622" stroke="#969696" stroke-miterlimit="10"></path> <path d="M394.693 656.427L499.291 296.574" stroke="#969696" stroke-miterlimit="10"></path> <path d="M428.812 280.262L465.188 672.739" stroke="#969696" stroke-miterlimit="10"></path> <path d="M533.904 660.842L360.098 292.158" stroke="#969696" stroke-miterlimit="10"></path> <path d="M303.119 330.85L590.879 622.15" stroke="#969696" stroke-miterlimit="10"></path> <path d="M627.747 561.921L266.252 391.08" stroke="#969696" stroke-miterlimit="10"></path> <path d="M255.086 464.396L638.898 488.603" stroke="#969696" stroke-miterlimit="10"></path> <path d="M622.443 412.648L271.543 540.35" stroke="#969696" stroke-miterlimit="10"></path> <path d="M313.588 607.998L580.412 345.002" stroke="#969696" stroke-miterlimit="10"></path> <path d="M518.575 295.557L375.426 657.443" stroke="#969696" stroke-miterlimit="10"></path> <path d="M448.365 681.331L445.617 271.668" stroke="#969696" stroke-miterlimit="10"></path> <path d="M371.994 277.133L522.005 675.868" stroke="#969696" stroke-miterlimit="10"></path> <path d="M585.686 641.496L308.314 311.504" stroke="#969696" stroke-miterlimit="10"></path> <path d="M263.918 370.145L630.067 582.854" stroke="#969696" stroke-miterlimit="10"></path> <path d="M648.525 508.108L245.477 444.893" stroke="#969696" stroke-miterlimit="10"></path> <path d="M255.943 525.102L638.056 427.896" stroke="#969696" stroke-miterlimit="10"></path> <path d="M599.823 353.723L294.178 599.279" stroke="#969696" stroke-miterlimit="10"></path> <path d="M354.982 656.585L539.018 296.414" stroke="#969696" stroke-miterlimit="10"></path> <path d="M464.154 264.457L429.828 688.542" stroke="#969696" stroke-miterlimit="10"></path> <path d="M508.076 690.21L385.926 262.789" stroke="#969696" stroke-miterlimit="10"></path> <path d="M315.557 292L578.426 661.002" stroke="#969696" stroke-miterlimit="10"></path> <path d="M630.638 604.742L263.361 348.258" stroke="#969696" stroke-miterlimit="10"></path> <path d="M237.09 423.752L656.912 529.249" stroke="#969696" stroke-miterlimit="10"></path> <path d="M653.146 445.227L240.854 507.775" stroke="#969696" stroke-miterlimit="10"></path> <path d="M274.48 588.319L619.519 364.682" stroke="#969696" stroke-miterlimit="10"></path> <path d="M560.525 299.354L333.475 653.647" stroke="#969696" stroke-miterlimit="10"></path> <path d="M409.607 694.164L484.391 258.834" stroke="#969696" stroke-miterlimit="10"></path> <path d="M401.936 249.32L492.063 703.679" stroke="#969696" stroke-miterlimit="10"></path> <path d="M569.007 680.459L324.992 272.543" stroke="#969696" stroke-miterlimit="10"></path> <path d="M264.76 325.561L629.241 627.439" stroke="#969696" stroke-miterlimit="10"></path> <path d="M663.837 551.963L230.148 401.039" stroke="#969696" stroke-miterlimit="10"></path> <path d="M226.494 488.348L667.506 464.65" stroke="#969696" stroke-miterlimit="10"></path> <path d="M639.312 377.992L254.689 575.009" stroke="#969696" stroke-miterlimit="10"></path> <path d="M311.031 648.485L582.97 304.516" stroke="#969696" stroke-miterlimit="10"></path> <path d="M506.265 255.039L387.736 697.962" stroke="#969696" stroke-miterlimit="10"></path> <path d="M473.94 716.006L420.061 236.996" stroke="#969696" stroke-miterlimit="10"></path> <path d="M336.699 253.355L557.284 699.645" stroke="#969696" stroke-miterlimit="10"></path> <path d="M625.698 650.789L268.285 302.213" stroke="#969696" stroke-miterlimit="10"></path> <path d="M224.891 376.863L669.095 576.136" stroke="#969696" stroke-miterlimit="10"></path> <path d="M680.896 486.172L213.088 466.826" stroke="#969696" stroke-miterlimit="10"></path> <path d="M234.977 559.285L659.008 393.717" stroke="#969696" stroke-miterlimit="10"></path> <path d="M606.191 312.107L287.807 640.892" stroke="#969696" stroke-miterlimit="10"></path> <path d="M364.291 699.724L529.71 253.275" stroke="#969696" stroke-miterlimit="10"></path> <path d="M440.328 226.035L453.671 726.964" stroke="#969696" stroke-miterlimit="10"></path> <path d="M543.163 718.323L350.82 234.676" stroke="#969696" stroke-miterlimit="10"></path> <path d="M274.146 278.402L619.836 674.596" stroke="#969696" stroke-miterlimit="10"></path> <path d="M672.447 601.677L221.539 351.324" stroke="#969696" stroke-miterlimit="10"></path> <path d="M200.904 443.225L693.095 509.776" stroke="#969696" stroke-miterlimit="10"></path> <path d="M678.386 411.949L215.613 541.049" stroke="#969696" stroke-miterlimit="10"></path> <path d="M263.965 630.744L630.034 322.258" stroke="#969696" stroke-miterlimit="10"></path> <path d="M554.617 253.799L339.385 699.199" stroke="#969696" stroke-miterlimit="10"></path> <path d="M431.275 736.288L462.71 216.713" stroke="#969696" stroke-miterlimit="10"></path> <path d="M367.436 216.76L526.564 736.24" stroke="#969696" stroke-miterlimit="10"></path> <path d="M611.498 698.628L282.502 254.371" stroke="#969696" stroke-miterlimit="10"></path> <path d="M220.332 324.561L673.67 628.44" stroke="#969696" stroke-miterlimit="10"></path> <path d="M703.818 535.41L190.184 417.588" stroke="#969696" stroke-miterlimit="10"></path> <path d="M196.822 520.259L697.178 432.742" stroke="#969696" stroke-miterlimit="10"></path> <path d="M654.275 335.139L239.727 617.862" stroke="#969696" stroke-miterlimit="10"></path> <path d="M313.127 696.197L580.873 256.801" stroke="#969696" stroke-miterlimit="10"></path> <path d="M487.203 209.295L406.781 743.706" stroke="#969696" stroke-miterlimit="10"></path> <path d="M507.408 753.139L386.592 199.859" stroke="#969696" stroke-miterlimit="10"></path> <path d="M293.494 230.324L600.506 722.676" stroke="#969696" stroke-miterlimit="10"></path> <path d="M672.525 656.235L221.475 296.764" stroke="#969696" stroke-miterlimit="10"></path> <path d="M181.191 390L712.807 563.001" stroke="#969696" stroke-miterlimit="10"></path> <path d="M715.127 456.105L178.857 496.894" stroke="#969696" stroke-miterlimit="10"></path> <path d="M215.295 602.121L678.703 350.879" stroke="#969696" stroke-miterlimit="10"></path> <path d="M608.306 262.535L285.68 690.464" stroke="#969696" stroke-miterlimit="10"></path> <path d="M380.254 748.93L513.746 204.068" stroke="#969696" stroke-miterlimit="10"></path> <path d="M408.369 184.295L485.63 768.706" stroke="#969696" stroke-miterlimit="10"></path> <path d="M586.702 746.453L307.297 206.547" stroke="#969696" stroke-miterlimit="10"></path> <path d="M225.207 268.111L668.792 684.89" stroke="#969696" stroke-miterlimit="10"></path> <path d="M719.797 592.433L174.203 360.568" stroke="#969696" stroke-miterlimit="10"></path> <path d="M162.035 470.926L731.964 482.076" stroke="#969696" stroke-miterlimit="10"></path> <path d="M703.055 369.59L190.93 583.411" stroke="#969696" stroke-miterlimit="10"></path> <path d="M257.23 681.807L636.77 271.191" stroke="#969696" stroke-miterlimit="10"></path> <path d="M542.226 201.289L351.773 751.71" stroke="#969696" stroke-miterlimit="10"></path> <path d="M461.232 782.652L432.768 170.35" stroke="#969696" stroke-miterlimit="10"></path> <path d="M324.023 183.326L569.976 769.675" stroke="#969696" stroke-miterlimit="10"></path> <path d="M662.232 714.146L231.752 238.854" stroke="#969696" stroke-miterlimit="10"></path> <path d="M169.502 329.42L724.499 623.579" stroke="#969696" stroke-miterlimit="10"></path> <path d="M747.371 510.618L146.611 442.383" stroke="#969696" stroke-miterlimit="10"></path> <path d="M166.912 561.635L727.088 391.365" stroke="#969696" stroke-miterlimit="10"></path> <path d="M666.028 282.977L227.955 670.022" stroke="#969696" stroke-miterlimit="10"></path> <path d="M321.436 751.742L572.566 201.258" stroke="#969696" stroke-miterlimit="10"></path> <path d="M459.787 158.357L434.197 794.644" stroke="#969696" stroke-miterlimit="10"></path> <path d="M550.199 792.054L343.799 160.945" stroke="#969696" stroke-miterlimit="10"></path> <path d="M241.33 209.215L652.67 743.784" stroke="#969696" stroke-miterlimit="10"></path> <path d="M726.628 656.268L167.357 296.732" stroke="#969696" stroke-miterlimit="10"></path> <path d="M132.936 411.314L761.048 541.685" stroke="#969696" stroke-miterlimit="10"></path> <path d="M750.47 416.287L143.531 536.715" stroke="#969696" stroke-miterlimit="10"></path> <path d="M198.141 654.917L695.859 298.082" stroke="#969696" stroke-miterlimit="10"></path> <path d="M604.589 204.229L289.396 748.773" stroke="#969696" stroke-miterlimit="10"></path> <path d="M404.572 804.364L489.426 148.637" stroke="#969696" stroke-miterlimit="10"></path> <path d="M366.721 139.773L527.279 813.227" stroke="#969696" stroke-miterlimit="10"></path> <path d="M639.867 773.471L254.133 179.529" stroke="#969696" stroke-miterlimit="10"></path> <path d="M168.072 262.695L725.913 690.306" stroke="#969696" stroke-miterlimit="10"></path> <path d="M772.676 575.183L121.324 377.816" stroke="#969696" stroke-miterlimit="10"></path> <path d="M121.102 508.601L772.898 444.4" stroke="#969696" stroke-miterlimit="10"></path> <path d="M725.976 316.666L168.008 636.334" stroke="#969696" stroke-miterlimit="10"></path> <path d="M255.848 742.498L638.135 210.502" stroke="#969696" stroke-miterlimit="10"></path> <path d="M521.594 141.52L372.408 811.479" stroke="#969696" stroke-miterlimit="10"></path> <path d="M501.165 832.843L392.834 120.158" stroke="#969696" stroke-miterlimit="10"></path> <path d="M270.352 150.066L623.65 802.935" stroke="#969696" stroke-miterlimit="10"></path> <path d="M722.068 725.44L171.932 227.561" stroke="#969696" stroke-miterlimit="10"></path> <path d="M112.096 342L781.905 611" stroke="#969696" stroke-miterlimit="10"></path> <path d="M794.025 475.705L99.9766 477.293" stroke="#969696" stroke-miterlimit="10"></path> <path d="M137.908 614.097L756.093 338.902" stroke="#969696" stroke-miterlimit="10"></path> <path d="M673.002 220.334L220.998 732.667" stroke="#969696" stroke-miterlimit="10"></path> <path d="M337.795 815.625L556.204 137.375" stroke="#969696" stroke-miterlimit="10"></path> <path d="M422.189 102.447L471.796 850.552" stroke="#969696" stroke-miterlimit="10"></path> <path d="M603.842 831.777L290.143 121.221" stroke="#969696" stroke-miterlimit="10"></path> <path d="M179.176 191.602L714.81 761.4" stroke="#969696" stroke-miterlimit="10"></path> <path d="M788.386 648.962L105.6 304.039" stroke="#969696" stroke-miterlimit="10"></path> <path d="M80.5176 442.795L813.483 510.204" stroke="#969696" stroke-miterlimit="10"></path> <path d="M785.876 364.904L108.125 588.097" stroke="#969696" stroke-miterlimit="10"></path> <path d="M185.084 719.038L708.901 233.961" stroke="#969696" stroke-miterlimit="10"></path> <path d="M593.12 136.518L300.865 816.483" stroke="#969696" stroke-miterlimit="10"></path> <path d="M439.186 865.944L454.8 87.0566" stroke="#969696" stroke-miterlimit="10"></path> <path d="M313.684 93.3301L580.317 859.669" stroke="#969696" stroke-miterlimit="10"></path> <path d="M703.881 797.9L190.119 155.102" stroke="#969696" stroke-miterlimit="10"></path> <path d="M102.199 264.107L791.784 688.891" stroke="#969696" stroke-miterlimit="10"></path> <path d="M830.891 547.832L63.1074 405.168" stroke="#969696" stroke-miterlimit="10"></path> <path d="M79.0566 558.251L814.944 394.748" stroke="#969696" stroke-miterlimit="10"></path> <path d="M745.576 251.639L148.406 701.359" stroke="#969696" stroke-miterlimit="10"></path> <path d="M261.805 813.703L632.195 139.297" stroke="#969696" stroke-miterlimit="10"></path> <path d="M490.634 74.3809L403.35 878.618" stroke="#969696" stroke-miterlimit="10"></path> <path d="M552.947 886.164L341.051 66.8379" stroke="#969696" stroke-miterlimit="10"></path> <path d="M204.971 118.441L689.013 834.557" stroke="#969696" stroke-miterlimit="10"></path> <path d="M791.754 730.523L102.248 222.479" stroke="#969696" stroke-miterlimit="10"></path> <path d="M48.1445 364.506L845.854 588.493" stroke="#969696" stroke-miterlimit="10"></path> <path d="M842.932 428.533L51.0684 524.469" stroke="#969696" stroke-miterlimit="10"></path> <path d="M111.285 679.425L782.699 273.574" stroke="#969696" stroke-miterlimit="10"></path> <path d="M673.193 146.078L220.809 806.92" stroke="#969696" stroke-miterlimit="10"></path> <path d="M364.369 888.181L529.629 64.8203" stroke="#969696" stroke-miterlimit="10"></path> <path d="M372.359 42.1387L521.624 910.862" stroke="#969696" stroke-miterlimit="10"></path> <path d="M669.999 871.011L224 81.9902" stroke="#969696" stroke-miterlimit="10"></path> <path d="M106.076 179.402L787.926 773.598" stroke="#969696" stroke-miterlimit="10"></path> <path d="M857.958 632.046L36.041 320.955" stroke="#969696" stroke-miterlimit="10"></path> <path d="M24.5898 486.729L869.412 466.271" stroke="#969696" stroke-miterlimit="10"></path> <path d="M819.899 299.957L74.0996 653.044" stroke="#969696" stroke-miterlimit="10"></path> <path d="M178.143 795.835L715.858 157.166" stroke="#969696" stroke-miterlimit="10"></path> <path d="M571.66 58.8164L322.34 894.184" stroke="#969696" stroke-miterlimit="10"></path> <path d="M486.313 933.305L407.67 19.6953" stroke="#969696" stroke-miterlimit="10"></path> <path d="M247.398 46.1719L646.603 906.826" stroke="#969696" stroke-miterlimit="10"></path> <path d="M779.966 817.785L114.033 135.215" stroke="#969696" stroke-miterlimit="10"></path> <path d="M27.209 274.703L866.773 678.299" stroke="#969696" stroke-miterlimit="10"></path> <path d="M893.938 507.933L0.0644531 445.066" stroke="#969696" stroke-miterlimit="10"></path> <path d="M37.2168 622.055L856.783 330.945" stroke="#969696" stroke-miterlimit="10"></path> <path d="M759.905 172.875L134.096 780.127" stroke="#969696" stroke-miterlimit="10"></path> <path d="M277.42 896.217L616.581 56.7832" stroke="#969696" stroke-miterlimit="10"></path> <path d="M447 0V953" stroke="#969696" stroke-miterlimit="10"></path> </g> <defs> <clipPath id="clip0_1884_43020"> <rect width="894" height="953" fill="white"></rect> </clipPath> </defs> </svg> 